<svg xmlns="http://www.w3.org/2000/svg" viewBox="0 0 1600 900"><defs><pattern id="gridpat" width="64" height="64" patternUnits="userSpaceOnUse"><path d="M64 0H0V64" fill="none" stroke="#24354b" stroke-width="1"/></pattern></defs><rect width="1600" height="900" fill="#0c1420"/><rect x="32" y="32" width="1536" height="836" fill="url(#gridpat)" opacity=".45"/><g font-family="Arial, Helvetica, sans-serif"><text x="90" y="128" font-size="58" fill="#f0b84d" font-weight="750" letter-spacing="2">AES HEX CALCULATOR</text><text x="94" y="184" font-size="23" fill="#839ab6" letter-spacing="4">128 / 192 / 256-BIT / ECB / ROUND TRACE</text><path d="M94 219H1506" stroke="#24354b" stroke-width="2"/><rect x="190" y="340" width="260" height="100" rx="10" fill="#131f30" stroke="#f0b84d" stroke-width="3"/><text x="320" y="400" font-size="30" fill="#ecf1f7" text-anchor="middle" font-weight="700">SubBytes</text><path d="M460 390h40" stroke="#f0b84d" stroke-width="4"/><path d="M492 380l10 10-10 10" stroke="#f0b84d" stroke-width="4" fill="none"/><rect x="510" y="340" width="260" height="100" rx="10" fill="#131f30" stroke="#f0b84d" stroke-width="3"/><text x="640" y="400" font-size="30" fill="#ecf1f7" text-anchor="middle" font-weight="700">ShiftRows</text><path d="M780 390h40" stroke="#f0b84d" stroke-width="4"/><path d="M812 380l10 10-10 10" stroke="#f0b84d" stroke-width="4" fill="none"/><rect x="830" y="340" width="260" height="100" rx="10" fill="#131f30" stroke="#f0b84d" stroke-width="3"/><text x="960" y="400" font-size="30" fill="#ecf1f7" text-anchor="middle" font-weight="700">MixColumns</text><path d="M1100 390h40" stroke="#f0b84d" stroke-width="4"/><path d="M1132 380l10 10-10 10" stroke="#f0b84d" stroke-width="4" fill="none"/><rect x="1150" y="340" width="260" height="100" rx="10" fill="#131f30" stroke="#f0b84d" stroke-width="3"/><text x="1280" y="400" font-size="30" fill="#ecf1f7" text-anchor="middle" font-weight="700">AddRoundKey</text><path d="M1380 440v40h-1160v-40" fill="none" stroke="#839ab6" stroke-width="2" stroke-dasharray="6 8"/><text x="800" y="520" font-size="22" fill="#839ab6" text-anchor="middle" letter-spacing="3">REPEAT FOR 10 / 12 / 14 ROUNDS (AES-128 / 192 / 256)</text><text x="800" y="860" font-size="24" fill="#839ab6" text-anchor="middle" letter-spacing="4">00112233...CCDDEEFF → 69C4E0D8...70B4C55A</text></g></svg>