<svg xmlns="http://www.w3.org/2000/svg" viewBox="0 0 1600 900"><defs><pattern id="grid" width="64" height="64" patternUnits="userSpaceOnUse"><path d="M64 0H0V64" fill="none" stroke="#24354b" stroke-width="1"/></pattern></defs><rect width="1600" height="900" fill="#0c1420"/><rect x="32" y="32" width="1536" height="836" fill="url(#grid)" opacity=".45"/><g font-family="Arial, Helvetica, sans-serif"><text x="90" y="128" font-size="58" fill="#f0b84d" font-weight="750" letter-spacing="2">AFFINE CIPHER</text><text x="94" y="184" font-size="23" fill="#839ab6" letter-spacing="4">SCALE / SHIFT / DECODE</text><path d="M94 219H1506" stroke="#24354b" stroke-width="2"/><rect x="300" y="300" width="155" height="120" rx="8" fill="#131f30" stroke="#24354b" stroke-width="2"/><text x="377.5" y="388" font-size="66" fill="#ecf1f7" text-anchor="middle">A</text><path d="M377.5 420v90" stroke="#f0b84d" stroke-width="4"/><path d="M364.5 497l13 13 13-13" stroke="#f0b84d" stroke-width="4" fill="none"/><rect x="300" y="545" width="155" height="120" rx="8" fill="#f0b84d"/><text x="377.5" y="633" font-size="66" fill="#0c1420" text-anchor="middle">I</text><rect x="505" y="300" width="155" height="120" rx="8" fill="#131f30" stroke="#24354b" stroke-width="2"/><text x="582.5" y="388" font-size="66" fill="#ecf1f7" text-anchor="middle">F</text><path d="M582.5 420v90" stroke="#f0b84d" stroke-width="4"/><path d="M569.5 497l13 13 13-13" stroke="#f0b84d" stroke-width="4" fill="none"/><rect x="505" y="545" width="155" height="120" rx="8" fill="#f0b84d"/><text x="582.5" y="633" font-size="66" fill="#0c1420" text-anchor="middle">H</text><rect x="710" y="300" width="155" height="120" rx="8" fill="#131f30" stroke="#24354b" stroke-width="2"/><text x="787.5" y="388" font-size="66" fill="#ecf1f7" text-anchor="middle">F</text><path d="M787.5 420v90" stroke="#f0b84d" stroke-width="4"/><path d="M774.5 497l13 13 13-13" stroke="#f0b84d" stroke-width="4" fill="none"/><rect x="710" y="545" width="155" height="120" rx="8" fill="#f0b84d"/><text x="787.5" y="633" font-size="66" fill="#0c1420" text-anchor="middle">H</text><rect x="915" y="300" width="155" height="120" rx="8" fill="#131f30" stroke="#24354b" stroke-width="2"/><text x="992.5" y="388" font-size="66" fill="#ecf1f7" text-anchor="middle">I</text><path d="M992.5 420v90" stroke="#f0b84d" stroke-width="4"/><path d="M979.5 497l13 13 13-13" stroke="#f0b84d" stroke-width="4" fill="none"/><rect x="915" y="545" width="155" height="120" rx="8" fill="#f0b84d"/><text x="992.5" y="633" font-size="66" fill="#0c1420" text-anchor="middle">W</text><rect x="1120" y="300" width="155" height="120" rx="8" fill="#131f30" stroke="#24354b" stroke-width="2"/><text x="1197.5" y="388" font-size="66" fill="#ecf1f7" text-anchor="middle">N</text><path d="M1197.5 420v90" stroke="#f0b84d" stroke-width="4"/><path d="M1184.5 497l13 13 13-13" stroke="#f0b84d" stroke-width="4" fill="none"/><rect x="1120" y="545" width="155" height="120" rx="8" fill="#f0b84d"/><text x="1197.5" y="633" font-size="66" fill="#0c1420" text-anchor="middle">V</text><text x="800" y="260" font-size="26" fill="#839ab6" text-anchor="middle" letter-spacing="5">C = (P × 5 + 8) MOD 26</text></g></svg>