<svg xmlns="http://www.w3.org/2000/svg" viewBox="0 0 1600 900"><defs><pattern id="gridpat" width="64" height="64" patternUnits="userSpaceOnUse"><path d="M64 0H0V64" fill="none" stroke="#d5dce2" stroke-width="1"/></pattern></defs><rect width="1600" height="900" fill="#f8f5ee"/><rect x="32" y="32" width="1536" height="836" fill="url(#gridpat)" opacity=".45"/><g font-family="Arial, Helvetica, sans-serif"><text x="90" y="128" font-size="58" fill="#936016" font-weight="750" letter-spacing="2">MD5 &amp; SHA HASH GENERATOR</text><text x="94" y="184" font-size="23" fill="#465a70" letter-spacing="4">FIXED-LENGTH FINGERPRINT</text><path d="M94 219H1506" stroke="#d5dce2" stroke-width="2"/><rect x="130" y="380" width="280" height="130" rx="10" fill="#ffffff" stroke="#936016" stroke-width="3"/><text x="270" y="459" font-size="46" fill="#14202e" text-anchor="middle" font-family="monospace">abc</text><path d="M470 370L690 411L690 479L470 520Z" fill="#936016" opacity=".18" stroke="#936016" stroke-width="2"/><text x="730" y="300" font-size="24" fill="#465a70" letter-spacing="2">MD5</text><rect x="880" y="270" width="620" height="42" rx="6" fill="#ffffff" stroke="#d5dce2" stroke-width="2"/><text x="900" y="298" font-size="22" fill="#936016" font-family="monospace">900150983cd24fb0…</text><text x="730" y="380" font-size="24" fill="#465a70" letter-spacing="2">SHA-1</text><rect x="880" y="350" width="620" height="42" rx="6" fill="#ffffff" stroke="#d5dce2" stroke-width="2"/><text x="900" y="378" font-size="22" fill="#936016" font-family="monospace">a9993e364706816aba3e…</text><text x="730" y="460" font-size="24" fill="#465a70" letter-spacing="2">SHA-256</text><rect x="880" y="430" width="620" height="42" rx="6" fill="#ffffff" stroke="#d5dce2" stroke-width="2"/><text x="900" y="458" font-size="22" fill="#936016" font-family="monospace">ba7816bf8f01cfea4141…</text><text x="730" y="540" font-size="24" fill="#465a70" letter-spacing="2">SHA-512</text><rect x="880" y="510" width="620" height="42" rx="6" fill="#ffffff" stroke="#d5dce2" stroke-width="2"/><text x="900" y="538" font-size="22" fill="#936016" font-family="monospace">ddaf35a193617abacc41…</text><text x="800" y="860" font-size="26" fill="#465a70" text-anchor="middle" letter-spacing="4">SAME INPUT ALWAYS PRODUCES THE SAME HASH</text></g></svg>