<svg xmlns="http://www.w3.org/2000/svg" viewBox="0 0 1600 900"><defs><pattern id="grid" width="64" height="64" patternUnits="userSpaceOnUse"><path d="M64 0H0V64" fill="none" stroke="#d5dce2" stroke-width="1"/></pattern><linearGradient id="copper" x1="0" x2="1"><stop stop-color="#936016"/><stop offset=".45" stop-color="#c78c36"/><stop offset="1" stop-color="#724715"/></linearGradient><linearGradient id="fade" x2="0" y2="1"><stop stop-color="#936016" stop-opacity=".28"/><stop offset="1" stop-color="#936016" stop-opacity=".02"/></linearGradient></defs><rect width="1600" height="900" fill="#f8f5ee"/><rect x="32" y="32" width="1536" height="836" fill="url(#grid)" opacity=".45"/><g font-family="Arial, Helvetica, sans-serif"><text x="90" y="128" font-size="62" fill="#936016" font-weight="750" letter-spacing="2">LOGIC DESIGN</text><text x="94" y="184" font-size="23" fill="#465a70" letter-spacing="4">CONDITIONS BECOME CIRCUITS</text><path d="M94 219H1506" stroke="#d5dce2" stroke-width="2"/><text x="250" y="411" font-size="52" fill="#936016" >A  1</text><text x="250" y="609" font-size="52" fill="#465a70" >B  0</text><path d="M405 390H680M405 590H495" stroke="#936016" stroke-width="6" fill="none"/><path d="M495 550L560 590L495 630Z" fill="#ffffff" stroke="#936016" stroke-width="4"/><circle cx="572" cy="590" r="12" stroke="#936016" stroke-width="4" fill="#f8f5ee"/><path d="M584 590H640V510H680" stroke="#936016" stroke-width="6" fill="none"/><path d="M680 340H830A150 150 0 0 1 830 640H680Z" fill="#ffffff" stroke="#936016" stroke-width="6"/><path d="M980 490H1160" stroke="#936016" stroke-width="6"/><text x="812" y="510" font-size="43" fill="#14202e" text-anchor="middle">AND</text><circle cx="1230" cy="490" r="68" fill="#936016"/><text x="1230" y="510" font-size="62" fill="#f8f5ee" text-anchor="middle">1</text><text x="795" y="752" font-size="29" fill="#465a70" text-anchor="middle" letter-spacing="3">A ON + B OFF → OUTPUT ON</text></g></svg>
