<svg xmlns="http://www.w3.org/2000/svg" viewBox="0 0 1600 900" role="img" aria-label="SMPS DESIGN connected circuit overview"><defs><pattern id="grid" width="50" height="50" patternUnits="userSpaceOnUse"><path d="M50 0H0V50" fill="none" stroke="#dce6ef" opacity=".06"/></pattern></defs><rect width="1600" height="900" fill="#0c141d"/><rect x="55" y="245" width="1490" height="545" rx="18" fill="#111e2b"/><rect x="55" y="245" width="1490" height="545" rx="18" fill="url(#grid)"/><g font-family="Arial,sans-serif"><text x="80" y="120" fill="#edba54" font-size="70" font-weight="700">SMPS DESIGN</text><text x="83" y="177" fill="#dce6ef" font-size="25" letter-spacing="4">ISOLATED FLYBACK / AC OR DC INPUT</text><g fill="none" stroke="#edba54" stroke-width="6" stroke-linecap="round" stroke-linejoin="round"><path d="M140 360H550M140 360V460M140 540V720H550M300 360V522M278 522H322M278 542H322M300 542V720M550 360V390a20 20 0 0 0 0 40a20 20 0 0 0 0 40a20 20 0 0 0 0 40V560M625 388V510M642 388V510M715 360V390a20 20 0 0 1 0 40a20 20 0 0 1 0 40a20 20 0 0 1 0 40V720H1370M715 360H880M940 360H1370V495M1370 585V720M1100 360V522M1078 522H1122M1078 542H1122M1100 542V720M880 360H890M930 360H940M890 340L930 360L890 380ZM930 335V385M550 560V586H524V600M524 607V620M524 629V642M524 650V664H550V720M503 602V663M435 634H503"/><circle cx="140" cy="500" r="40"/><rect x="1355" y="495" width="30" height="90"/><circle cx="530" cy="374" r="6" fill="#edba54"/><circle cx="735" cy="523" r="6" fill="#edba54"/></g><g fill="#dce6ef" font-family="monospace" font-size="28"><text x="110" y="318">INPUT</text><text x="334" y="520">CIN</text><text x="610" y="337">T1</text><text x="575" y="615">Q1</text><text x="353" y="647">PWM</text><text x="885" y="312">D5</text><text x="1140" y="520">COUT</text><text x="1400" y="547">LOAD</text></g><text x="800" y="852" fill="#dce6ef" font-size="23" text-anchor="middle" letter-spacing="2">INPUT RESERVOIR  /  MOSFET  /  COUPLED WINDINGS  /  RECTIFIER</text></g></svg>
